# xmcd
#
# Track frame offsets:
#	150
#	18500
#	38060
#	55065
#	78997
#	82400
#	102337
#	105232
#	121800
#	140935
#	161412
#	178627
#	194705
#
# Disc length: 2856 seconds
#
# Revision: 1
# Processed by: cddbd v1.5.1PL0 Copyright (c) Steve Scherf et al.
# Submitted via: CDex 1.50Beta5
#
DISCID=ad0b260d
DTITLE=さまざまなアーティスト - 420 (MUNCHEES TIME)
DYEAR=1900
DGENRE=
TTITLE0=韻踏合組合 (I.F.K)/Waht's the Number?
TTITLE1=BONGA STARS/420 PARTY
TTITLE2=Large Prophits/一つに・・・ (SHUNAMI Remix)
TTITLE3=シンゴ西成 feat ASUKA/天使舞いおりる
TTITLE4=INTERLUDE
TTITLE5=420 FAMILY/MUNCHEES TIME
TTITLE6=SKIT
TTITLE7=SHUNAMI PRODUCTIONS/撃つ奴
TTITLE8=秘密結社/皆既月食
TTITLE9=シンゴ西成/浪速のロッキー
TTITLE10=BONGA STARS/SUPREX PARTY
TTITLE11=Large Prophits/SU8 DO8 RA8
TTITLE12=Danger Ranger(I.F.K) feat.22/特殊部隊
EXTD=
EXTT0=
EXTT1=
EXTT2=
EXTT3=
EXTT4=
EXTT5=
EXTT6=
EXTT7=
EXTT8=
EXTT9=
EXTT10=
EXTT11=
EXTT12=
PLAYORDER=
